<?xml version="1.0" encoding="UTF-8" standalone="yes"?>
<!DOCTYPE svg PUBLIC "-//W3C//DTD SVG 1.1//EN" "http://www.w3.org/Graphics/SVG/1.1/DTD/svg11.dtd">

<svg width="512" height="512" viewBox="0 0 512 512" xmlns="http://www.w3.org/2000/svg" xmlns:xlink="http://www.w3.org/1999/xlink" version="1.1" baseProfile="full">
    <g transform="scale(1,-1) translate(0,-512)">
        <path d="M 51.000003 1.000000 L 462.999997 1.000000 C 490.614236 1.000000 513.000000 23.385764 513.000000 51.000003 L 513.000000 462.999997 C 513.000000 490.614236 490.614236 513.000000 462.999997 513.000000 L 51.000003 513.000000 C 23.385764 513.000000 1.000000 490.614236 1.000000 462.999997 L 1.000000 51.000003 C 1.000000 23.385764 23.385764 1.000000 51.000003 1.000000 Z" transform="scale(1.000000,1.000000) translate(-1.000000,-1.000000)" fill="#e0febe" opacity="1.000000"></path>
        <path d="M 108.229434 175.969598 L 1.000000 1.000000 L 215.458869 1.000000 Z" transform="scale(1.000000,1.000000) translate(222.574645,92.090913)" fill="#000000" opacity="1.000000"></path>
        <path d="M 1.000000 1.000000 L 197.915225 1.000000 C 197.915225 1.000000 197.915225 1.000000 197.915225 1.000000 L 197.915225 326.818179 C 197.915225 326.818179 197.915225 326.818179 197.915225 326.818179 L 1.000000 326.818179 C 1.000000 326.818179 1.000000 326.818179 1.000000 326.818179 L 1.000000 1.000000 C 1.000000 1.000000 1.000000 1.000000 1.000000 1.000000 Z" transform="scale(1.000000,1.000000) translate(99.523066,92.090913)" fill="#000000" opacity="1.000000"></path>
        <path d="M 233.002527 105.376882 C 233.002527 163.022643 181.066992 209.753765 117.001263 209.753765 C 52.935535 209.753765 1.000000 163.022643 1.000000 105.376882 C 1.000000 47.731122 52.935535 1.000000 117.001263 1.000000 C 181.066992 1.000000 233.002527 47.731122 233.002527 105.376882 Z" transform="scale(1.000000,1.000000) translate(180.437000,209.155321)" fill="#000000" opacity="1.000000"></path>
    </g>
</svg>